<svg width="29" height="29" viewBox="0 0 29 29" fill="none" xmlns="http://www.w3.org/2000/svg">
<path d="M29 14.4998V14.4925C29 10.2018 27.1319 6.34838 24.1655 3.6985L24.151 3.68642C24.1143 3.64695 24.0734 3.61169 24.0289 3.58129L24.0265 3.58009C21.3917 1.26706 18.0036 -0.0054975 14.4976 0.00100133C10.8339 0.00100133 7.48925 1.36158 4.93967 3.60667L4.95538 3.59338C4.92474 3.6168 4.89642 3.6431 4.8708 3.67192C3.33812 5.02916 2.1113 6.69776 1.27159 8.56486C0.43188 10.432 -0.00155076 12.4562 4.16891e-06 14.5034C4.16891e-06 18.793 1.86567 22.6464 4.82971 25.2975L4.84421 25.3095C4.88277 25.3529 4.92569 25.3922 4.9723 25.4268L4.97471 25.428C7.60868 27.7379 10.9942 29.0086 14.4976 29.0022C18.0173 29.0076 21.4174 27.7251 24.0567 25.3965L24.041 25.4098C25.6003 24.0542 26.8502 22.3794 27.7062 20.4988C28.5622 18.6182 29.0042 16.5757 29.0024 14.5095V14.501L29 14.4998ZM23.6084 23.9308C22.8899 23.3502 22.1174 22.8396 21.3017 22.4059L21.2232 22.3673C21.9639 20.2321 22.4098 17.7708 22.452 15.2103V15.191H27.6008C27.4276 18.5036 26.0017 21.6266 23.612 23.9272L23.6084 23.9308ZM15.1912 22.1123C16.7415 22.1957 18.1903 22.5364 19.5267 23.091L19.4397 23.0596C18.3691 25.5005 16.8623 27.1776 15.1912 27.5462V22.1123ZM15.1912 20.73V15.191H21.0733C21.0265 17.4847 20.6288 19.7577 19.894 21.931L19.9411 21.7728C18.4412 21.1553 16.8455 20.8029 15.225 20.7312L15.1924 20.73H15.1912ZM15.1912 13.8086V8.26963C16.8553 8.19392 18.4936 7.82963 20.033 7.193L19.9375 7.22804C20.6081 9.18433 21.0202 11.4391 21.0733 13.7833V13.8086H15.1912ZM15.1912 6.88729V1.45583C16.8623 1.82438 18.3691 3.49429 19.4397 5.94238C18.1903 6.46196 16.7415 6.8015 15.2262 6.88609L15.1912 6.88729ZM18.6398 2.05396C20.064 2.52797 21.3958 3.24414 22.5765 4.17096L22.5487 4.14921C22.0134 4.56971 21.4129 4.96604 20.7797 5.31042L20.712 5.34425C20.2017 4.1361 19.4981 3.01909 18.6289 2.03704L18.6398 2.05033V2.05396ZM13.8064 1.45946V6.88729C12.3159 6.81135 10.8495 6.4803 9.47092 5.90854L9.55792 5.93996C10.6333 3.49913 12.1377 1.82317 13.8088 1.45463L13.8064 1.45946ZM8.28675 5.34063C7.63192 4.98794 7.00784 4.58092 6.42109 4.12384L6.45009 4.14559C7.59639 3.24592 8.88655 2.54651 10.266 2.07692L10.3578 2.04913C9.51218 3.0052 8.82335 4.08922 8.31696 5.26088L8.28675 5.34063ZM13.8088 8.26842V13.8074H7.92667C7.97984 11.4379 8.39188 9.18313 9.10963 7.06854L9.0625 7.22683C10.5625 7.84129 12.157 8.19321 13.7762 8.26721L13.8088 8.26842ZM13.8088 15.1898V20.7288C12.1447 20.8045 10.5064 21.1687 8.96704 21.8054L9.0625 21.7703C8.39188 19.8153 7.97984 17.5593 7.92667 15.2151V15.1898H13.8088ZM13.8088 22.1111V27.5425C12.1377 27.174 10.6309 25.5041 9.56034 23.056C10.8098 22.5364 12.2585 22.1981 13.7738 22.1135L13.8088 22.1111ZM10.3651 26.9444C8.94213 26.4697 7.61073 25.7554 6.42834 24.8323L6.45734 24.854C6.99263 24.4335 7.59317 24.0372 8.22634 23.6928L8.294 23.659C8.80051 24.8674 9.50406 25.9833 10.376 26.9613L10.3651 26.9493V26.9444ZM20.7133 23.6578C21.4141 24.0384 22.0146 24.4335 22.5789 24.8745L22.5499 24.8528C21.4036 25.7525 20.1135 26.4519 18.734 26.9215L18.6422 26.9493C19.4877 25.9935 20.1765 24.9099 20.683 23.7387L20.7133 23.6602V23.6578ZM27.6008 13.8086H22.452C22.4143 11.3086 21.9828 8.83013 21.1736 6.46438L21.2232 6.63113C22.0767 6.18159 22.8848 5.65068 23.6362 5.04579L23.6072 5.06754C25.9929 7.35886 27.4194 10.4706 27.5983 13.7736L27.6008 13.8086ZM5.39159 5.06875C6.08759 5.63425 6.86938 6.15263 7.6983 6.59367L7.77684 6.63233C7.03613 8.76746 6.59025 11.2288 6.54796 13.7893V13.8086H1.39805C1.5712 10.496 2.99705 7.37301 5.38675 5.07238L5.39159 5.06875ZM1.39925 15.191H6.54796C6.58575 17.691 7.01718 20.1695 7.82638 22.5352L7.77684 22.3685C6.86938 22.8506 6.0888 23.369 5.3638 23.9538L5.3928 23.932C3.00713 21.6407 1.5806 18.529 1.40167 15.226L1.40046 15.1922L1.39925 15.191Z" fill="black"/>
</svg>
